<svg id="レイヤー_1" data-name="レイヤー 1" xmlns="http://www.w3.org/2000/svg" width="32" height="32" viewBox="0 0 32 32">
  <path d="M28,3a1.13,1.13,0,0,1,1,1.2V21a1.13,1.13,0,0,1-1,1.2H19.5a4,4,0,0,0-3.24,1.67l-3,4.25-2.36-4a4,4,0,0,0-3.42-2H4A1.13,1.13,0,0,1,3,21V4.2A1.13,1.13,0,0,1,4,3H28m0-3H4A4.1,4.1,0,0,0,0,4.2V21a4.1,4.1,0,0,0,4,4.2H7.45a1,1,0,0,1,.84.49L11.45,31a1.95,1.95,0,0,0,3.3.15l3.95-5.53a1,1,0,0,1,.8-.42H28A4.1,4.1,0,0,0,32,21V4.2A4.1,4.1,0,0,0,28,0Z" fill="#3f28e2"/>
  <circle cx="16" cy="13" r="2" fill="#3f28e2"/>
  <circle cx="9" cy="13" r="2" fill="#3f28e2"/>
  <circle cx="23" cy="13" r="2" fill="#3f28e2"/>
</svg>
