<svg id="レイヤー_1" data-name="レイヤー 1" xmlns="http://www.w3.org/2000/svg" xmlns:xlink="http://www.w3.org/1999/xlink" width="32" height="32" viewBox="0 0 32 32">
  <defs>
    <linearGradient id="名称未設定グラデーション_18" data-name="名称未設定グラデーション 18" x1="0.04" y1="3.48" x2="31.96" y2="3.48" gradientUnits="userSpaceOnUse">
      <stop offset="0" stop-color="#3f28e2"/>
      <stop offset="1" stop-color="#b31be3"/>
    </linearGradient>
    <linearGradient id="名称未設定グラデーション_18-2" x1="0.04" y1="6.76" x2="31.96" y2="6.76" xlink:href="#名称未設定グラデーション_18"/>
    <linearGradient id="名称未設定グラデーション_18-4" x1="0.04" y1="20.82" x2="31.96" y2="20.82" xlink:href="#名称未設定グラデーション_18"/>
    <linearGradient id="名称未設定グラデーション_18-5" x1="0.04" y1="20.82" x2="31.96" y2="20.82" xlink:href="#名称未設定グラデーション_18"/>
    <linearGradient id="名称未設定グラデーション_18-6" x1="0.04" y1="20.82" x2="31.96" y2="20.82" xlink:href="#名称未設定グラデーション_18"/>
    <linearGradient id="名称未設定グラデーション_18-7" x1="0.04" y1="20.69" x2="31.96" y2="20.69" xlink:href="#名称未設定グラデーション_18"/>
  </defs>
  <rect width="32" height="32" fill="none"/>
  <rect width="32" height="32" fill="none"/>
  <g>
    <path d="M16,1.13a.94.94,0,0,0-.94.94V4.88a.94.94,0,0,0,1.88,0V2.07A.94.94,0,0,0,16,1.13Z" fill="url(#名称未設定グラデーション_18)"/>
    <path d="M11,7,9.16,5.16A.93.93,0,0,0,7.84,6.48L9.71,8.36A.94.94,0,1,0,11,7Z" fill="url(#名称未設定グラデーション_18-2)"/>
    <path d="M24.16,5.16a.92.92,0,0,0-1.32,0L21,7a.94.94,0,1,0,1.33,1.33l1.87-1.88A.92.92,0,0,0,24.16,5.16Z" fill="url(#名称未設定グラデーション_18-2)"/>
    <path d="M31.06,14.26H28.19V27.38h2.87a.94.94,0,0,0,.94-.94V15.19A.94.94,0,0,0,31.06,14.26Z" fill="url(#名称未設定グラデーション_18-4)"/>
    <path d="M.94,14.26a.94.94,0,0,0-.94.93V26.44a.94.94,0,0,0,.94.94H3.81V14.26Z" fill="url(#名称未設定グラデーション_18-5)"/>
    <path d="M15.28,15.19a1.86,1.86,0,0,0-1.67,1l-2.86,5.71a3.72,3.72,0,0,0,4.85-1.76l.62-1.24H18a1.88,1.88,0,0,1,1.32.55l7,7V15.19Z" fill="url(#名称未設定グラデーション_18-6)"/>
    <path d="M18,20.82h-.66l-.05.11a5.73,5.73,0,0,1-4.59,3.18,6.79,6.79,0,0,1-3.65-.84A.94.94,0,0,1,8.63,22l3.3-6.6a3.74,3.74,0,0,1,3.35-2.07h4a4.54,4.54,0,0,0,.42-1.88.94.94,0,0,0-.94-.93H11.53A2.8,2.8,0,0,0,9,12.06l-.84,1.68a.93.93,0,0,1-.84.52H5.69V27.38H10L12.64,30a2.79,2.79,0,0,0,2.84.69l8-2.52a2.67,2.67,0,0,0,1.22-.73Z" fill="url(#名称未設定グラデーション_18-7)"/>
  </g>
</svg>
