<svg id="レイヤー_1" data-name="レイヤー 1" xmlns="http://www.w3.org/2000/svg" width="32" height="32" viewBox="0 0 32 32">
  <rect width="32" height="32" fill="none"/>
  <g id="グループ_112" data-name="グループ 112">
    <path id="パス_15" data-name="パス 15" d="M26,16.23a11.75,11.75,0,0,0-.18-2.05H16.2v3.87h5.49a4.6,4.6,0,0,1-2,3v2.51H23a9.63,9.63,0,0,0,3-7.35Z" fill="#3e82f1" fill-rule="evenodd"/>
    <path id="パス_16" data-name="パス 16" d="M16.2,26A9.91,9.91,0,0,0,23,23.58l-3.29-2.51a6.24,6.24,0,0,1-8.5-1.82,5.64,5.64,0,0,1-.66-1.35H7.08v2.59A10.25,10.25,0,0,0,16.2,26Z" fill="#32a753" fill-rule="evenodd"/>
    <path id="パス_17" data-name="パス 17" d="M10.5,17.9a5.76,5.76,0,0,1,0-3.8V11.51H7.09a9.81,9.81,0,0,0,0,9l3.4-2.59Z" fill="#f9bb00" fill-rule="evenodd"/>
    <path id="パス_18" data-name="パス 18" d="M16.2,10a5.57,5.57,0,0,1,3.9,1.49L23,8.6A9.94,9.94,0,0,0,16.2,6a10.2,10.2,0,0,0-9.11,5.51L10.5,14.1A6.05,6.05,0,0,1,16.2,10Z" fill="#e74133" fill-rule="evenodd"/>
  </g>
</svg>
