<svg id="レイヤー_1" data-name="レイヤー 1" xmlns="http://www.w3.org/2000/svg" xmlns:xlink="http://www.w3.org/1999/xlink" width="32" height="32" viewBox="0 0 32 32">
  <defs>
    <linearGradient id="名称未設定グラデーション_14" data-name="名称未設定グラデーション 14" x1="7.65" y1="18.14" x2="23.71" y2="18.14" gradientUnits="userSpaceOnUse">
      <stop offset="0" stop-color="#3f28e2"/>
      <stop offset="1" stop-color="#b31be3"/>
    </linearGradient>
    <linearGradient id="名称未設定グラデーション_14-2" x1="7.65" y1="5.1" x2="23.71" y2="5.1" xlink:href="#名称未設定グラデーション_14"/>
    <linearGradient id="名称未設定グラデーション_14-3" x1="7.65" y1="7.7" x2="23.71" y2="7.7" xlink:href="#名称未設定グラデーション_14"/>
    <linearGradient id="名称未設定グラデーション_14-4" x1="7.65" y1="6.6" x2="23.71" y2="6.6" xlink:href="#名称未設定グラデーション_14"/>
    <linearGradient id="名称未設定グラデーション_14-5" x1="7.65" y1="21.91" x2="23.71" y2="21.91" xlink:href="#名称未設定グラデーション_14"/>
    <linearGradient id="名称未設定グラデーション_14-6" x1="0" y1="16" x2="32" y2="16" xlink:href="#名称未設定グラデーション_14"/>
  </defs>
  <g>
    <path d="M23.69,23.45l-4.37-7a3.76,3.76,0,0,1-.57-2V9.28H13.15v5.21a3.73,3.73,0,0,1-.57,2l-4.39,7a2.32,2.32,0,0,0-.36,1.24,2.37,2.37,0,0,0,.29,1.12,2.33,2.33,0,0,0,2,1.2H21.77a2.33,2.33,0,0,0,2-1.19h0A2.23,2.23,0,0,0,24,24.68,2.34,2.34,0,0,0,23.69,23.45Zm-1.12,1.7a1,1,0,0,1-.85.5h0l-11.57,0a1,1,0,0,1-.84-.5.93.93,0,0,1-.12-.46,1.07,1.07,0,0,1,.14-.52l4.39-7a5,5,0,0,0,.78-2.69V10.63h2.9v3.85h0a5.06,5.06,0,0,0,.77,2.68l4.37,7a.92.92,0,0,1,.15.51A1,1,0,0,1,22.57,25.15Z" fill="url(#名称未設定グラデーション_14)"/>
    <path d="M14.88,6.19a1.1,1.1,0,1,0-1.09-1.1A1.09,1.09,0,0,0,14.88,6.19Z" fill="url(#名称未設定グラデーション_14-2)"/>
    <path d="M15.67,8.34A.65.65,0,1,0,15,7.7.64.64,0,0,0,15.67,8.34Z" fill="url(#名称未設定グラデーション_14-3)"/>
    <path d="M17,6.6a.77.77,0,1,0,.77-.77A.77.77,0,0,0,17,6.6Z" fill="url(#名称未設定グラデーション_14-4)"/>
    <path d="M18.28,19.36a.28.28,0,0,0-.23-.13H13.84a.28.28,0,0,0-.23.13l-3,4.79a.28.28,0,0,0,0,.28.27.27,0,0,0,.24.14H21.05a.27.27,0,0,0,.24-.14.28.28,0,0,0,0-.28ZM15,21.86a.73.73,0,0,1-.73-.73.73.73,0,0,1,.73-.72.72.72,0,0,1,.72.72A.73.73,0,0,1,15,21.86Zm2.32,1.59a.49.49,0,1,1,.48-.48A.48.48,0,0,1,17.27,23.45Z" fill="url(#名称未設定グラデーション_14-5)"/>
  </g>
  <path d="M16,2A14,14,0,1,1,2,16,14,14,0,0,1,16,2m0-2A16,16,0,1,0,32,16,16,16,0,0,0,16,0Z" fill="url(#名称未設定グラデーション_14-6)"/>
</svg>
