<svg id="レイヤー_1" data-name="レイヤー 1" xmlns="http://www.w3.org/2000/svg" width="32" height="32" viewBox="0 0 32 32">
  <path d="M32,16a5,5,0,0,0-2.39-4.26,2,2,0,0,1-1-2.23A5,5,0,0,0,22.49,3.4a2,2,0,0,1-2.23-1,5,5,0,0,0-8.52,0,2,2,0,0,1-2.23,1A5,5,0,0,0,3.4,9.51a2,2,0,0,1-1,2.23,5,5,0,0,0,0,8.52,2,2,0,0,1,1,2.23,5,5,0,0,0,1.29,4.82h0A5,5,0,0,0,9.51,28.6a2,2,0,0,1,2.23,1,5,5,0,0,0,8.52,0,2,2,0,0,1,2.23-1,5,5,0,0,0,4.82-1.29h0a5,5,0,0,0,1.29-4.82,2,2,0,0,1,1-2.23A5,5,0,0,0,32,16Z" fill="#3f28e2"/>
  <g>
    <rect x="9.9" y="14.83" width="3" height="8" rx="1.5" transform="translate(-9.97 13.58) rotate(-45)" fill="#fff"/>
    <rect x="16.27" y="8" width="3" height="16" rx="1.5" transform="translate(16.52 -7.88) rotate(45)" fill="#fff"/>
  </g>
</svg>
