<svg id="レイヤー_1" data-name="レイヤー 1" xmlns="http://www.w3.org/2000/svg" width="32" height="32" viewBox="0 0 32 32">
  <rect width="32" height="32" fill="none"/>
  <g>
    <path d="M15.36,9.1A7,7,0,0,0,9.62,19Z" fill="#b0abc4"/>
    <path d="M16.54,23.07a7,7,0,0,0,6.45-7,6.93,6.93,0,0,0-.69-3Z" fill="#b0abc4"/>
    <path d="M30.85,13.05a29.82,29.82,0,0,0-5.63-5l-1.51,2.62A26.6,26.6,0,0,1,28.59,15a1.58,1.58,0,0,1,0,2.11c-1.92,2.2-6.85,7.09-12.62,7.09h-.1l-1.66,2.89a14.44,14.44,0,0,0,1.76.12c6.77,0,12.22-5.08,14.88-8.11A4.59,4.59,0,0,0,30.85,13.05Z" fill="#b0abc4"/>
    <path d="M8.2,21.5a27.09,27.09,0,0,1-4.86-4.36,1.6,1.6,0,0,1,0-2.11C5.27,12.83,10.19,8,16,8h0l1.67-2.89A14.06,14.06,0,0,0,16,4.94C9.2,4.94,3.74,10,1.09,13.05a4.57,4.57,0,0,0,0,6.07,29.17,29.17,0,0,0,5.6,5Z" fill="#b0abc4"/>
    <path d="M23.16,3.59h0a2,2,0,0,1,.73,2.74L11.58,27.67a2,2,0,0,1-2.74.73h0a2,2,0,0,1-.73-2.74L20.42,4.33A2,2,0,0,1,23.16,3.59Z" fill="#b0abc4"/>
  </g>
</svg>
