<svg id="レイヤー_1" data-name="レイヤー 1" xmlns="http://www.w3.org/2000/svg" width="32" height="32" viewBox="0 0 32 32">
  <rect width="32" height="32" fill="none"/>
  <g>
    <path d="M12,8h4l1.73-3H11.08A2.08,2.08,0,0,0,9,7.08V9h3Z" fill="#b0abc4"/>
    <path d="M28.92,5H26.14a4,4,0,0,1-.51,2.33L25.24,8H28V18H25v3h3.92A2.08,2.08,0,0,0,31,18.92V7.08A2.08,2.08,0,0,0,28.92,5Z" fill="#b0abc4"/>
    <path d="M23.16,3.59h0a2,2,0,0,1,.73,2.74L11.58,27.67a2,2,0,0,1-2.74.73h0a2,2,0,0,1-.73-2.74L20.42,4.33A2,2,0,0,1,23.16,3.59Z" fill="#b0abc4"/>
    <path d="M20,17.08V24H16l-1.73,3h6.65A2.08,2.08,0,0,0,23,24.92V13.08a2,2,0,0,0-.19-.86Z" fill="#b0abc4"/>
    <path d="M6.37,24.66,6.76,24H4V14h8.53l1.73-3H3.08A2.08,2.08,0,0,0,1,13.08V24.92A2.08,2.08,0,0,0,3.08,27H5.86A4,4,0,0,1,6.37,24.66Z" fill="#b0abc4"/>
  </g>
</svg>
