<svg id="レイヤー_1" data-name="レイヤー 1" xmlns="http://www.w3.org/2000/svg" width="32" height="32" viewBox="0 0 32 32">
  <g id="ic_note" data-name="ic note">
    <circle id="楕円形_19" data-name="楕円形 19" cx="16.13" cy="16.35" r="16" fill="#41c9b4"/>
    <path id="パス_191" data-name="パス 191" d="M10.84,22.26H21.13V10.1H13.68a.31.31,0,0,0-.18.09c-.88.94-1.74,1.9-2.6,2.83a.35.35,0,0,0-.08.24ZM22.13,8a1,1,0,0,1,1,1h0V23.29a1,1,0,0,1-1,1H9.8a1,1,0,0,1-1-1V12.88a1.41,1.41,0,0,1,.41-1l3.1-3.38a1.2,1.2,0,0,1,1-.42h8.82ZM12.88,15.2a.83.83,0,0,1,0-1.66h1.39V12.13a.83.83,0,0,1,1.66,0h0v2.22a.83.83,0,0,1-.83.83H12.89Z" fill="#fff"/>
  </g>
</svg>
