<svg id="レイヤー_1" data-name="レイヤー 1" xmlns="http://www.w3.org/2000/svg" width="32" height="32" viewBox="0 0 32 32">
  <rect width="32" height="32" fill="none"/>
  <g>
    <rect x="5.91" y="2" width="4.18" height="28" rx="2.04" fill="#696677"/>
    <g>
      <path d="M9.48,29.41h0a2.14,2.14,0,0,1-3,0L.61,23.76a2,2,0,0,1,0-2.83h0a2.16,2.16,0,0,1,3,0l5.91,5.66A1.94,1.94,0,0,1,9.48,29.41Z" fill="#696677"/>
      <path d="M6.52,29.41h0a1.94,1.94,0,0,1,0-2.82l5.91-5.66a2.16,2.16,0,0,1,3,0h0a2,2,0,0,1,0,2.83L9.48,29.41A2.14,2.14,0,0,1,6.52,29.41Z" fill="#696677"/>
    </g>
  </g>
  <g>
    <rect x="21.91" y="2" width="4.18" height="28" rx="2.04" transform="translate(48 32) rotate(180)" fill="#696677"/>
    <g>
      <path d="M22.52,2.59h0a2.14,2.14,0,0,1,3,0l5.91,5.65a2,2,0,0,1,0,2.83h0a2.16,2.16,0,0,1-3,0L22.52,5.41A1.94,1.94,0,0,1,22.52,2.59Z" fill="#696677"/>
      <path d="M25.48,2.59h0a1.94,1.94,0,0,1,0,2.82l-5.91,5.66a2.16,2.16,0,0,1-3,0h0a2,2,0,0,1,0-2.83l5.91-5.65A2.14,2.14,0,0,1,25.48,2.59Z" fill="#696677"/>
    </g>
  </g>
</svg>
