<svg id="レイヤー_1" data-name="レイヤー 1" xmlns="http://www.w3.org/2000/svg" width="32" height="32" viewBox="0 0 32 32">
  <circle cx="16" cy="16" r="16" fill="#40ba9b"/>
  <g>
    <path d="M12.18,18.16v2.93a6.28,6.28,0,0,0,.05.91,1.21,1.21,0,0,0,.14.42.83.83,0,0,0,.26.23,2.79,2.79,0,0,0,.56.2v.43H9.55v-.43a1.78,1.78,0,0,0,.72-.3.78.78,0,0,0,.23-.48,5.46,5.46,0,0,0,.06-.95V13.65a6,6,0,0,0,0-.86,1.14,1.14,0,0,0-.15-.43.67.67,0,0,0-.26-.24,2.56,2.56,0,0,0-.56-.2V11.5h4.27a5.07,5.07,0,0,1,3,.73,2.63,2.63,0,0,1,1,2.28,3.11,3.11,0,0,1-.65,2,4.17,4.17,0,0,1-2,1.29v.07a2.59,2.59,0,0,1,.9.62A6,6,0,0,1,17,19.75l.78,1.41a7.66,7.66,0,0,0,.58.95,2,2,0,0,0,.49.5,1.52,1.52,0,0,0,.66.24v.43H17.09c-.22-.31-.42-.64-.62-1s-.39-.7-.58-1.07l-.76-1.44a7.73,7.73,0,0,0-.56-1,1.61,1.61,0,0,0-.41-.44,1.13,1.13,0,0,0-.39-.17,3.29,3.29,0,0,0-.64-.05Zm0-5.87v5.13h1a5.61,5.61,0,0,0,1.21-.11,2.25,2.25,0,0,0,.87-.41,2.12,2.12,0,0,0,.63-.84,3.26,3.26,0,0,0,.24-1.33,2.92,2.92,0,0,0-.28-1.36,1.9,1.9,0,0,0-.85-.83,3.47,3.47,0,0,0-1.54-.28Q12.66,12.26,12.18,12.29Z" fill="#fff"/>
    <path d="M23.55,11.66a2.72,2.72,0,0,1-.46,1.69,2,2,0,0,1-1.65.6,1.79,1.79,0,0,1-1.52-.62,4.28,4.28,0,0,1-.47-2.39q0-.21.06-1.11a5.3,5.3,0,0,1,.16-1.22A1.72,1.72,0,0,1,20,8a1.61,1.61,0,0,1,.65-.41,2.77,2.77,0,0,1,.91-.13,2.22,2.22,0,0,1,1.28.36,1.25,1.25,0,0,1,.6.95l-1,.29c-.09-.61-.38-.91-.88-.91a.8.8,0,0,0-.8.47,4,4,0,0,0-.23,1.57v.32c0,.42,0,.83.05,1.21s.07.67.1.85a.81.81,0,0,0,.18.42.7.7,0,0,0,.28.22,1.3,1.3,0,0,0,.36,0,.86.86,0,0,0,.6-.19,1,1,0,0,0,.29-.54,6.58,6.58,0,0,0,.08-1.21h-1v-.74h2Z" fill="#fff"/>
  </g>
</svg>
