<svg id="レイヤー_1" data-name="レイヤー 1" xmlns="http://www.w3.org/2000/svg" width="32" height="32" viewBox="0 0 32 32">
  <circle cx="16" cy="16" r="16" fill="#00acee"/>
  <path d="M24,11a6.29,6.29,0,0,1-1.89.51,3.27,3.27,0,0,0,1.45-1.81,6.87,6.87,0,0,1-2.09.8,3.28,3.28,0,0,0-5.68,2.24,3.08,3.08,0,0,0,.09.75A9.32,9.32,0,0,1,9.11,10.1a3.29,3.29,0,0,0,1,4.38,3.29,3.29,0,0,1-1.49-.41v0a3.28,3.28,0,0,0,2.64,3.22,3.22,3.22,0,0,1-1.49.06,3.3,3.3,0,0,0,3.07,2.28,6.58,6.58,0,0,1-4.08,1.4A6.79,6.79,0,0,1,8,21a9.34,9.34,0,0,0,14.37-7.87c0-.14,0-.28,0-.42A6.79,6.79,0,0,0,24,11Z" fill="#fff"/>
</svg>
