<svg id="レイヤー_1" data-name="レイヤー 1" xmlns="http://www.w3.org/2000/svg" width="160" height="32" viewBox="0 0 160 32">
  <g>
    <g>
      <polygon points="112.41 28.72 103.95 17.3 110.77 9.03 105.44 9.03 99.28 16.32 99.28 2.46 94.36 2.46 94.36 28.72 99.28 28.72 99.28 22.97 101.07 20.8 106.67 28.72 112.41 28.72" fill="#696677"/>
      <rect x="59.9" y="10.67" width="4.92" height="18.05" fill="#696677"/>
      <rect x="59.9" y="2.46" width="4.92" height="4.92" fill="#696677"/>
      <polygon points="43.49 25.54 43.49 2.46 38.56 2.46 38.56 25.54 38.56 28.72 38.56 28.82 54.97 28.82 54.97 25.54 43.49 25.54" fill="#696677"/>
      <path d="M79.59,9c-4.6,0-8.21,2.88-8.21,6.56V28.72h4.93V15.59a3.28,3.28,0,0,1,6.56,0V28.72h4.92V15.59C87.79,11.91,84.19,9,79.59,9Z" fill="#696677"/>
      <path d="M158.36,15.59c0-3.68-3.61-6.56-8.21-6.56a10.21,10.21,0,0,0-3.28.53V8.62H142v20.1h4.92V15.59a3.29,3.29,0,0,1,6.57,0v1.64Z" fill="#696677"/>
      <path d="M122.26,20.51h13.82a11.61,11.61,0,0,0-1.56-7.64,8.26,8.26,0,0,0-3.13-3.08c-8.19-4.53-16.52,1.32-16.52,9.08a10.67,10.67,0,0,0,20.82,3.28h-4.92a5.17,5.17,0,0,1-5.23,3.7c-3.9,0-5.75-3.18-5.75-7,0-3.59,1.54-7,5.75-7,3.32,0,5.15,2.3,5.62,5.33h-8.9Z" fill="#696677"/>
    </g>
    <g>
      <path d="M21.54,8.82H16.23a.81.81,0,0,0-.74.46A5.4,5.4,0,0,0,15,11.59v.51a.82.82,0,0,0,.82.82h2.47a.82.82,0,0,1,.82.82v6.67A7.49,7.49,0,1,1,6.5,14.92a.8.8,0,0,0,.27-.6V11.73c0-.13,0-.27,0-.4a.83.83,0,0,0-1.26-.73,11.55,11.55,0,0,0,6,21.4A11.73,11.73,0,0,0,23.18,20.27V10.46A1.65,1.65,0,0,0,21.54,8.82Z" fill="#696677"/>
      <path d="M21,0A11.59,11.59,0,0,0,9.85,6.9a12.57,12.57,0,0,0-.74,2.22,11.8,11.8,0,0,0-.29,2.61v9.81a1.65,1.65,0,0,0,1.64,1.64h5.31a.81.81,0,0,0,.74-.46A5.4,5.4,0,0,0,17,20.41V19.9a.82.82,0,0,0-.82-.82H13.74a.82.82,0,0,1-.82-.82V11.7a7.51,7.51,0,0,1,.57-2.88A7.56,7.56,0,0,1,20.37,4.1a7.5,7.5,0,0,1,7.53,7.53A7.4,7.4,0,0,1,25.5,17a.82.82,0,0,0-.27.6v2.63c0,.14,0,.28,0,.42a.83.83,0,0,0,1.26.73A11.56,11.56,0,0,0,21,0Z" fill="#696677"/>
    </g>
  </g>
</svg>
